# xmcd
#
# Track frame offsets:
#	183
#	23403
#	43400
#	62590
#	80463
#	97163
#	110400
#	120833
#	136458
#	160085
#	185973
#	202938
#	223428
#	246845
#	271305
#
# Disc length: 3889 seconds
#
# Revision: 2
# Processed by: cddbd v1.5.2PL0 Copyright (c) Steve Scherf et al.
# Submitted via: EasyCDDAExtractor 15.3.0.1
#
DISCID=d90f2f0f
DTITLE=Maria Conchita Alonso - Loca... En Una Noche De Copas - En Vivo Mexico
DYEAR=1991
DGENRE=Latin
TTITLE0=Soy Tu Mujer
TTITLE1=En La Noche
TTITLE2=Me Vuelve Loca Tu Amor
TTITLE3=El Tonto Aquel
TTITLE4=Sueltame
TTITLE5=La Loca
TTITLE6=O Ella O Yo
TTITLE7=Otra Mentira Mas
TTITLE8=Entre La Espada Y La Pared (Capela)
TTITLE9=Mirame
TTITLE10=Noche De Copas
TTITLE11=Ese Mañana
TTITLE12=Soy El Amor
TTITLE13=Acariciame
TTITLE14=Hazme Sentir
EXTD=
EXTT0=
EXTT1=
EXTT2=
EXTT3=
EXTT4=
EXTT5=
EXTT6=
EXTT7=
EXTT8=
EXTT9=
EXTT10=
EXTT11=
EXTT12=
EXTT13=
EXTT14=
PLAYORDER=
